<?xml version="1.0" encoding="UTF-8"?>
<svg id="Livello_2" xmlns="http://www.w3.org/2000/svg" viewBox="0 0 806.06 627.29">
  <defs>
    <style>
      .cls-1 {
        fill: none;
        stroke: #fafafa;
        stroke-linecap: round;
        stroke-linejoin: round;
        stroke-width: 2.55px;
      }

      .cls-2 {
        fill: #40bcf4;
      }

      .cls-3 {
        fill: #00e054;
      }

      .cls-4 {
        fill: #fafafa;
      }

      .cls-5 {
        fill: #ff8000;
      }
    </style>
  </defs>
  <g id="illustration-dark">
    <g id="fill-colored">
      <path class="cls-5" d="M302.44,308.52c-.72-.28-1.47-.49-2.25-.61-4.9-.8-9.68,1.88-13.63,4.89-5.82,4.43-10.9,9.82-14.99,15.89-1.1,1.63-2.14,3.34-2.89,5.16-8.52-1.66-16.43-6.39-21.66-13.67-6.81-9.46-14.68-18.07-21.97-27.15-4.84-6.03-12.35-13.92-14.44-22.22-.64-2.55-.77-5.14-.16-7.72,3.22-13.46,12.64-25.42,25.2-31.32,3.14-1.47,6.8-2.59,10.01-1.3,16.16,21.2,32.25,42.41,48.41,63.61,3.33,4.37,6.78,9.3,8.37,14.44Z"/>
      <path class="cls-4" d="M302.74,318.37c-1.48,5.1-5.68,9.01-10.27,11.68-7.32,4.25-15.82,5.38-23.79,3.8.75-1.82,1.79-3.53,2.89-5.16,4.09-6.07,9.17-11.46,14.99-15.89,3.95-3.01,8.73-5.69,13.63-4.89.78.12,1.53.33,2.25.61.99,3.23,1.26,6.54.3,9.85Z"/>
      <path class="cls-3" d="M354.38,375.5c-.32,0-.64.04-.96.1-2.24.4-4.23,1.64-6.09,2.94-5.3,3.68-10.11,8.05-14.28,12.97-3.05,3.58-5.83,7.64-6.5,12.29-.01.04-.01.09-.02.13-1.58-.53-3.14-1.19-4.65-1.9-18.5-8.71-32.08-25.09-44.63-41.24-2.88-3.71-5.77-7.48-7.7-11.76-1.8-3.99-2.72-8.52-1.68-12.76.2-.83.47-1.63.81-2.42,7.97,1.58,16.47.45,23.79-3.8,4.59-2.67,8.79-6.58,10.27-11.68.96-3.31.69-6.62-.3-9.85,2.9,1.1,5.39,3.28,7.62,5.49,4.51,4.48,8.53,9.43,12,14.75l-4.24-7.3c12.3,16.83,24.02,34.08,35.15,51.7.48.77.97,1.54,1.41,2.34Z"/>
      <path class="cls-4" d="M354.84,386.99c-3.25,8.78-10.08,17.36-19.41,18.21-3.01.27-6.01-.29-8.9-1.27,0-.04,0-.09.02-.13.67-4.65,3.45-8.71,6.5-12.29,4.17-4.92,8.98-9.29,14.28-12.97,1.86-1.3,3.85-2.54,6.09-2.94.32-.06.64-.09.96-.1.82,1.48,1.48,3.04,1.67,4.72.26,2.3-.41,4.6-1.21,6.77Z"/>
      <path class="cls-2" d="M394.77,463.51c-6.31,3.08-13.7,3.69-20.56,2.18-5.37-1.18-10.46-3.63-14.73-7.08-5.59-4.52-9.67-10.6-13.66-16.58l-11.97-17.97c-4.06-6.07-8.29-12.9-7.32-20.13,2.89.98,5.89,1.54,8.9,1.27,9.33-.85,16.16-9.43,19.41-18.21.8-2.17,1.47-4.47,1.21-6.77-.19-1.68-.85-3.24-1.67-4.72,5.67-.21,10.21,6.83,13.51,10.51,6.49,7.24,11.5,15.62,17.86,23.01,6.12,7.11,12.85,14.19,18.43,21.46,2.03,2.64,4.05,5.39,4.99,8.59,2.77,9.44-6.5,20.58-14.4,24.44Z"/>
    </g>
    <g id="stroke">
      <path class="cls-1" d="M106.16,2.09c2.07.31,4.14.7,6.23,1.19,17.96,4.17,33.99,15.32,46.81,28.2,10.83,10.88,21.33,22.09,31.52,33.58,16.57,18.68,31.86,38.87,31.63,65.1-.37,42.39-44.47,76.32-81.73,87.67-6.7,2.04-13.68,3.55-20.66,2.99-11.4-.92-21.61-7.24-30.72-14.16-15.1-11.47-28.49-25.01-41.82-38.5-15.24-15.43-30.79-31.28-39.85-50.99-4-8.71-6.67-18.21-6.27-27.79.46-11.12,5-21.66,10.34-31.42C30.39,23.76,65.79-3.89,106.16,2.09Z"/>
      <path class="cls-1" d="M36.69,88.81c1.63,15.75,3.98,31.42,7.07,46.95"/>
      <path class="cls-1" d="M61.12,113.22c1.75,9.9,3.5,19.79,5.24,29.69,1.3,7.35,2.64,14.82,6.06,21.45"/>
      <path class="cls-1" d="M87.74,139.77c.74,9.5,1.48,19.02,3.01,28.42,1.08,6.61,2.62,13.32,6.31,18.91"/>
      <path class="cls-1" d="M205.25,151.27c7.51,27.24,22.91,51.56,38.93,74.83,12.16,17.67,24.8,35.01,37.91,51.99"/>
      <path class="cls-1" d="M139.28,211.89c23.06,13.36,43.95,30.47,61.59,50.45,4.78,5.41,9.32,11.03,13.82,16.68,24.36,30.54,47.64,61.91,70.92,93.28"/>
      <path class="cls-1" d="M319.06,322.2c.48-.16-.31-.88-.61-.47s0,.97.29,1.39c33.4,46.88,74.2,88.35,106.01,136.34,1.83,2.76,3.67,5.53,5.39,8.36,2.91,4.77,5.57,9.9,6.11,15.46.54,5.56-1.46,11.68-6.16,14.7"/>
      <path class="cls-1" d="M333.21,423.59c12.75,19.11,25.61,38.36,41.82,54.65,6.13,6.16,12.78,11.92,20.43,16.04,7.65,4.12,16.39,6.55,25.04,5.74,5.19-.48,8.57-2.18,11.45-6.52"/>
      <path class="cls-1" d="M246.76,321.86c-1.98,4.14-3.63,8.44-4.92,12.85-.16.54-.31,1.12-.1,1.64"/>
      <path class="cls-1" d="M269.65,354.68c-3.83,6.1-10.2,10.54-17.25,12.03-2.14.45-4.39.64-6.51.07s-4.08-1.99-4.9-4.02"/>
      <path class="cls-1" d="M251.04,337.55c.51.85.57,1.9.41,2.87-.57,3.57-3.61,6.12-5.96,8.87-1.59,1.86-2.94,3.93-3.98,6.14-.68,1.43-1.24,2.94-2.25,4.17-.49.59-1.13,1.13-1.89,1.2-.97.08-1.86-.66-2.24-1.55s-.36-1.9-.26-2.87c.56-5.75,3.08-12.06,5.96-17.05,1.77-3.07,7.84-5.74,10.22-1.77Z"/>
      <path class="cls-1" d="M211.08,274.4c-2.56-.87-5.46.01-7.59,1.66-4.13,3.18-5.69,9.29-3.59,14.07,2.38,5.42,8.4,8.25,14.16,9.6s11.85,1.75,17.14,4.41"/>
      <path class="cls-1" d="M205.12,274.39c-2.63.12-5.27.24-7.89.47-2.75.24-5.62.64-7.87,2.25-.72.52-1.37,1.17-1.78,1.96-.96,1.86-.42,4.22.85,5.88s3.17,2.72,5.07,3.58,3.9,1.56,5.65,2.7"/>
      <path class="cls-1" d="M303.45,275.01c-4.27-2.17-8.69-4.35-13.47-4.75-1.55-.13-3.31.02-4.33,1.19-.82.94-.93,2.34-.58,3.53s1.1,2.23,1.87,3.2c7.39,9.32,18.37,15.71,30.12,17.53,1.29.2,2.63.34,3.87-.05,2.39-.75,3.55-3.57,3.11-5.91s-2.73-3.68-4.42-5.02c-4.95-3.91-10.58-6.86-16.18-9.72Z"/>
      <path class="cls-1" d="M287.48,282.79c1.12,6.03,2.75,12.07,5.93,17.32,3.58,5.9,8.98,10.53,14.88,14.11s12.33,6.2,18.72,8.79c3.88,1.58,7.78,3.16,11.86,4.13,5.92,1.41,12.06,1.49,18.14,1.49,8.94,0,17.88-.15,26.78-.94,4.74-.42,9.58-1.05,13.84-3.16"/>
      <path class="cls-1" d="M412.34,337.44c3.63,26.77,17.93,51.94,39.07,68.76"/>
      <path class="cls-1" d="M321.79,285.72c14.08,5.04,29.48,4.25,44.41,3.39,16.51-.95,33.02-1.89,49.52-2.84,9.39-.54,19.24-.99,27.71,3.1,4.8,2.32,8.82,5.95,12.74,9.57,15.27,14.05,30.23,28.52,46.85,40.94,16.62,12.42,35.12,22.81,55.3,27.63,81.85,19.52,155.28,63.83,237.75,80.55"/>
      <path class="cls-1" d="M421.2,458.3c30.36,9.36,62.21,12.84,93.04,20.53,105.69,26.34,192.55,99.64,290.55,147.18"/>
      <path class="cls-1" d="M518.01,420.4c35.23,18.76,71.44,35.7,108.42,50.72"/>
      <path class="cls-1" d="M394.22,286.98c-30.23-5.23-60.7-9.06-91.28-11.49"/>
      <path class="cls-1" d="M285.39,372.23c5.28,5.36,14.65,4.95,19.69,10.55,4.01,4.46,3.86,11.48,1.34,16.93-1.37,2.95-3.46,5.71-6.42,7.07-1.39.64-2.92.94-4.44,1.04-8.25.59-15.88-4.16-22.47-9.17-1.85-1.4-3.68-2.85-5.2-4.59-3.07-3.51-4.76-8.11-5.07-12.76s.7-9.33,2.54-13.61c1.71-3.97,4.44-7.87,8.55-9.22"/>
      <path class="cls-1" d="M282.86,380.79c4.38-1.3,9.13.7,12.64,3.63,1.48,1.24,2.85,2.69,3.59,4.47,1.28,3.1.46,6.62-.45,9.85-.46,1.64-.94,3.28-1.7,4.8-.38.75-.84,1.49-1.51,1.99-1.67,1.25-4.05.69-5.97-.11-3.66-1.53-7.03-3.76-9.87-6.53-2.6-2.55-4.88-6.04-4.16-9.61.55-2.71,2.68-4.78,4.71-6.66,1.49-1.38,3.44-2.86,5.34-2.17"/>
      <path class="cls-1" d="M304.85,403.94c4.67-.35,9.36-.4,14.04-.16,1.97.1,3.98.26,5.81.99,3.55,1.41,6.08,5,6.41,8.81s-1.45,7.69-4.43,10.09c-4.04,3.25-9.65,3.7-14.15,6.27"/>
      <path class="cls-1" d="M287.07,410.02c-1.97,3.31-1.03,7.58.56,11.09,2.5,5.54,6.71,10.59,12.4,12.73,4.08,1.54,8.56,1.48,12.92,1.41,3.38-.06,6.76-.12,10.15-.18,5.15-.09,10.3-.18,15.41-.83"/>
      <path class="cls-1" d="M302.99,413.34c-.61,3.49,1.2,7.27,4.3,8.99,1.92,1.07,4.17,1.36,6.37,1.48,2.32.13,4.85.02,6.63-1.48,1.25-1.06,1.93-2.67,2.16-4.29s.08-3.27-.08-4.9c-.11-1.09-.22-2.21-.7-3.19-.49-.99-1.32-1.77-2.22-2.4-5.36-3.78-15.25-1.14-16.45,5.8Z"/>
    </g>
  </g>
</svg>